<svg xmlns="http://www.w3.org/2000/svg" viewBox="0 0 371.02 384"><defs><style>.cls-1{fill:#040202;}.cls-2{fill:#fb6c78;}.cls-3{fill:#fd8b94;}.cls-4{fill:#fd6c79;}.cls-5{fill:#f94e5f;}.cls-6{fill:#fc4e5f;}</style></defs><g id="Layer_2" data-name="Layer 2"><g id="Layer_1-2" data-name="Layer 1"><path class="cls-1" d="M312.56,258.9c5.36-1.77,7.1-1.19,10.37,3.55q21.82,31.74,43.64,63.5c6.71,9.79,5.81,19.12-2.55,27.66-6.12,6.25-12.29,12.44-18.31,18.77-4.69,4.92-9.33,9.82-16.22,11.62h-8.25c-14.29-7.71-25.57-19.31-37.92-29.48q-121-99.72-241.86-199.76c-3.55-2.93-5.15-5.89-4.63-10.53.81-7.44,1.08-14.93,1.58-22.4a25.22,25.22,0,0,0,.6-2.92q2-22.74,3.84-45.48c.42-5.07.75-10.16,1.12-15.24-10.38,11-20,22.09-29.5,33.33-2.82,3.35-2.33,7.2,1.19,9.85s4.53,5.45,3,9.4c-4,3.9-6.72,4.06-11.1.65-9-7-10.15-19.71-2.36-28.86,9.46-11.13,19-22.17,28.57-33.24,2.77-3.22,5.31-6.68,8.36-9.6,3.36-3.2,4.3-7,4.54-11.36C47.44,14.13,54,7.64,68,6.61,93.32,4.74,118.59,2.74,143.86.76A6.58,6.58,0,0,0,145.7,0h13.51c7.19,2,11.87,7,16,12.79,3,4.13,6.29,8,9.42,12.06,3.41,4.37,3.37,6.52-.09,10.88-5.16,1.66-6.66,1.22-10-3-4.18-5.29-8.41-10.54-12.47-15.92-2.34-3.11-5.2-4.24-9.07-3.93Q110,16.29,66.82,19.5c-4.4.34-6.79,2.59-7.25,7.07-.38,3.72-.58,7.46-.9,11.19Q55.84,71.33,53,104.91c-1,12.16-2,24.32-3,36.77,2,.27,3.86.57,5.7.74q15.84,1.46,31.7,2.84c13.42,1.16,26.85,2.25,40.28,3.38a20.13,20.13,0,0,0,2.52.52q32.82,3,65.64,6c5.66.51,7.17,2.06,7.73,7.6-1.46,3.9-4.15,5.64-8.41,5.23-11.8-1.15-23.63-2.16-35.44-3.24l-86.93-7.93c-2.84-.26-5.68-.45-9.58-.75L244.11,305.59c-.18-2.62-.26-4.36-.41-6.09q-2.47-28.17-5-56.34c-1.85-21.28-3.63-42.55-5.55-63.82-.43-4.8-1.29-9.57-1.94-14.35-.21-.84-.36-1.7-.64-2.51q-9.81-29-19.64-58c-1.67-5-1.09-6.77,3-10,6-.37,7.27.48,9.26,6.33q9.33,27.44,18.61,54.9c1.15,3.4,2.57,6.86,2.89,10.39,3.39,37.19,6.58,74.4,9.83,111.61.39,4.35.86,8.69,1.29,13a5.82,5.82,0,0,0,1.76-2.68Q298.57,181,339.49,74c2.71-7.09-.07-11-7.77-11q-62.06,0-124.13,0a17.58,17.58,0,0,0-3.45.69c-.83.92-1.69,1.8-2.47,2.77q-23.78,29.44-47.52,58.9c-3.69,4.57-5.47,5-10.61,2.8-2.91-4.19-3-6.27-.25-9.74q27.09-33.61,54.24-67.18a32.67,32.67,0,0,1,5.8-1q64.46-.09,128.9,0c16.3,0,25.09,13,19.23,28.38Q323,153,294.57,227.42c-.44,1.16-.73,2.36-1.1,3.54s-1.08,2.23-1.52,3.37q-9.26,24.1-18.48,48.21c-4.58,12-9.13,23.95-13.74,36.08l4.34,3.21c.52.52,1,1.1,1.57,1.57q27.28,22.58,54.6,45.12c4.69,3.87,7.58,3.68,12-.77q11-11.22,22.05-22.47c4.94-5,5.14-7.17,1.13-13q-21.54-31.33-43.07-62.67C309.12,264.94,309.18,263.48,312.56,258.9Z"/><path class="cls-2" d="M18.66,110.77c1.53-4,.39-6.87-3-9.4s-4-6.5-1.19-9.85C23.94,80.28,33.59,69.18,44,58.19c-.37,5.08-.7,10.17-1.12,15.24Q41,96.17,39,118.91a25.22,25.22,0,0,1-.6,2.92Z"/><path class="cls-3" d="M197.53,51.18q-27.14,33.58-54.24,67.18c-2.8,3.47-2.66,5.55.25,9.74-.44.59-.88,1.19-1.34,1.77l-14.56,18.77c-13.43-1.13-26.86-2.22-40.28-3.38q-15.85-1.37-31.7-2.84c-1.84-.17-3.66-.47-5.7-.74,1-12.45,2-24.61,3-36.77q2.82-33.57,5.68-67.15c.32-3.73.52-7.47.9-11.19.46-4.48,2.85-6.73,7.25-7.07q43.13-3.29,86.24-6.63c3.87-.31,6.73.82,9.07,3.93,4.06,5.38,8.29,10.63,12.47,15.92,3.33,4.23,4.83,4.67,10,3l11.23,13.55C196.36,49.93,197,50.55,197.53,51.18Z"/><path class="cls-4" d="M312.56,258.9c-3.38,4.58-3.44,6-.24,10.7q21.53,31.35,43.07,62.67c4,5.84,3.81,8-1.13,13q-11,11.24-22.05,22.47c-4.39,4.45-7.28,4.64-12,.77Q292.92,346,265.64,323.4c-.57-.47-1.05-1-1.57-1.57a15,15,0,0,0,1.57-2.46c7.49-19.11,15-38.22,22.39-57.38,3.23-8.34,6.21-16.78,9.31-25.17Z"/><path class="cls-5" d="M297.34,236.82c-3.1,8.39-6.08,16.83-9.31,25.17-7.39,19.16-14.9,38.27-22.39,57.38a15,15,0,0,1-1.57,2.46l-4.34-3.21c4.61-12.13,9.16-24.11,13.74-36.08q9.21-24.1,18.48-48.21c.44-1.14,1-2.25,1.52-3.37Z"/><path class="cls-3" d="M204.14,63.63a17.58,17.58,0,0,1,3.45-.69q62.07,0,124.13,0c7.7,0,10.48,4,7.77,11Q298.57,181,257.63,288.1a5.82,5.82,0,0,1-1.76,2.68c-.43-4.34-.9-8.68-1.29-13-3.25-37.21-6.44-74.42-9.83-111.61-.32-3.53-1.74-7-2.89-10.39q-9.24-27.48-18.61-54.9c-2-5.85-3.28-6.7-9.26-6.33-.41-1.56-.73-3.15-1.23-4.67Q208.49,76.72,204.14,63.63Z"/><path class="cls-6" d="M231.25,165c.65,4.78,1.51,9.55,1.94,14.35,1.92,21.27,3.7,42.54,5.55,63.82q2.46,28.17,5,56.34c.15,1.73.23,3.47.41,6.09L63.17,156c3.9.3,6.74.49,9.58.75l86.93,7.93c11.81,1.08,23.64,2.09,35.44,3.24,4.26.41,6.95-1.33,8.41-5.23Z"/><path class="cls-4" d="M231.25,165l-27.72-2.27c-.56-5.54-2.07-7.09-7.73-7.6q-32.82-3-65.64-6a20.13,20.13,0,0,1-2.52-.52l14.56-18.77c.46-.58.9-1.18,1.34-1.77,5.14,2.22,6.92,1.77,10.61-2.8q23.76-29.44,47.52-58.9c.78-1,1.64-1.85,2.47-2.77q4.32,13.09,8.62,26.22c.5,1.52.82,3.11,1.23,4.67-4.11,3.19-4.69,5-3,10q9.81,29,19.64,58C230.89,163.29,231,164.15,231.25,165Z"/></g></g></svg>