<?xml version="1.0" encoding="UTF-8"?>
<svg id="Layer_1" data-name="Layer 1" xmlns="http://www.w3.org/2000/svg" viewBox="0 0 384 384">
  <defs>
    <style>
      .cls-1 {
        fill: #e2c43a;
      }

      .cls-1, .cls-2, .cls-3, .cls-4, .cls-5, .cls-6, .cls-7, .cls-8, .cls-9, .cls-10, .cls-11, .cls-12, .cls-13, .cls-14, .cls-15, .cls-16, .cls-17, .cls-18, .cls-19, .cls-20, .cls-21, .cls-22, .cls-23, .cls-24, .cls-25, .cls-26, .cls-27, .cls-28, .cls-29, .cls-30 {
        stroke-width: 0px;
      }

      .cls-2 {
        fill: #f8de64;
      }

      .cls-3 {
        fill: #e54441;
      }

      .cls-4 {
        fill: #e64a46;
      }

      .cls-5 {
        fill: #ca3734;
      }

      .cls-6 {
        fill: #3c474c;
      }

      .cls-7 {
        fill: #d1413e;
      }

      .cls-8 {
        fill: #333f44;
      }

      .cls-9 {
        fill: #d44f4c;
      }

      .cls-10 {
        fill: #485157;
      }

      .cls-11 {
        fill: #374247;
      }

      .cls-12 {
        fill: #525b60;
      }

      .cls-13 {
        fill: #404a4f;
      }

      .cls-14 {
        fill: #4d565b;
      }

      .cls-15 {
        fill: #565f64;
      }

      .cls-16 {
        fill: #e7504c;
      }

      .cls-17 {
        fill: #fdfefe;
      }

      .cls-18 {
        fill: #d24542;
      }

      .cls-19 {
        fill: #fbd83f;
      }

      .cls-20 {
        fill: #cf3d3b;
      }

      .cls-21 {
        fill: #ce3734;
      }

      .cls-22 {
        fill: #e64a47;
      }

      .cls-23 {
        fill: #384348;
      }

      .cls-24 {
        fill: #e75552;
      }

      .cls-25 {
        fill: #454e54;
      }

      .cls-26 {
        fill: #e85955;
      }

      .cls-27 {
        fill: #fbfcfc;
      }

      .cls-28 {
        fill: #e85552;
      }

      .cls-29 {
        fill: #fefefe;
      }

      .cls-30 {
        fill: #d34947;
      }
    </style>
  </defs>
  <path class="cls-29" d="M0,189V0c59.5,0,119,0,178.5,0-.83.45-1.62,1.02-2.51,1.33-9.07,3.2-14.6,9.39-15.68,19.04-.43,3.79-.07,7.67-.07,11.47-8.39.61-17.19,1.26-25.99,1.9-2.97.27-6.04.15-8.88.9-6.69,1.77-13.7,3.11-19.81,6.15-11.48,5.71-13.14,19.42-3.53,27.92,4.08,3.61,9.42,5.8,14.19,8.63,3.74,1.56,7.49,3.12,10.83,4.51-7.34,4.98-14.68,9.97-22.03,14.95-1.12.77-2.31,1.46-3.37,2.31-18.42,14.87-32.93,32.95-44.04,53.79-3,5.64-5.7,11.45-8.72,17.55-.37-1.35-.7-2.28-.88-3.25-.64-3.49-2.47-5.91-5.99-6.93-3.44-1-6.06.39-8.39,2.74-2.2,2.21-4.44,4.39-6.61,6.63-3.46,3.57-3.9,6.3-1.73,10.81,1.81,3.75,3.67,7.47,5.95,12.09-6.33-2.49-11.74-4.59-17.13-6.73-7.52-2.99-9.02-2.66-14.13,3.16Z"/>
  <path class="cls-29" d="M189,0h195v219.75c-.97-4.54-1.73-9.14-2.95-13.61-2.37-8.75-4.99-17.43-7.51-26.14-4.96-14.33-12.85-27.04-21.69-39.22-7.76-8.75-15.51-17.49-23.27-26.24-10.77-10.63-22.84-19.5-36.1-26.76-6.63-3.33-13.21-6.79-19.93-9.93-2.69-1.26-4.83-2.51-5.76-5.64-.8-2.69-2.41-5.14-3.66-7.7-5.57-11.49-13.35-21.37-22.21-30.47-7.95-6.9-15.73-14.01-23.9-20.64-8.21-6.66-18.17-9.98-28.02-13.4Z"/>
  <path class="cls-17" d="M194.25,384H0v-173.25c2.61,4.29,6.44,5.69,11.35,5.31,3.84-.3,7.73-.06,12.65-.06-4.79,3.58-8.64,6.36-12.37,9.27-4.37,3.42-4.9,8.34-1.24,12.39,2.59,2.87,5.33,5.63,8.22,8.19,3.62,3.21,7.97,2.89,11.38-.55.65-.65,1.23-1.36,2.32-2.58v7.78c.49,8.7.36,17.49,1.62,26.08,1.78,12.14,5.81,23.67,12.46,34.13,7.24,13.41,17.3,24.35,29.37,33.52,0,0,0,0,0,0l2.99,2.24c10.28,8.01,21.54,14.24,33.72,18.85,11.76,3.74,23.52,7.48,35.27,11.22,13.76,2.07,27.52,4.14,41.27,6.2,1.74.42,3.49.83,5.23,1.25Z"/>
  <path class="cls-17" d="M384,248.25v135.75h-149.25c.86-.27,1.71-.67,2.59-.79,5.88-.8,11.77-1.54,17.66-2.29,13.14-1.74,25.91-4.91,38.25-9.8,7.71-3.57,15.76-6.57,23.08-10.82,38.03-22.05,58.59-55.84,65.43-98.67.71-4.47,1.49-8.92,2.24-13.38Z"/>
  <path class="cls-15" d="M32.3,250.5v-7.78c-1.09,1.21-1.68,1.92-2.32,2.58-3.41,3.44-7.76,3.76-11.38.55-2.89-2.56-5.63-5.32-8.22-8.19-3.66-4.05-3.13-8.98,1.24-12.39,3.73-2.92,7.58-5.69,12.37-9.27-4.91,0-8.8-.24-12.65.06-4.9.39-8.74-1.02-11.35-5.31v-21.75c5.11-5.83,6.6-6.15,14.13-3.16,5.39,2.14,10.79,4.24,17.13,6.73-2.28-4.62-4.14-8.34-5.95-12.09-2.17-4.51-1.73-7.25,1.73-10.81,2.17-2.24,4.41-4.42,6.61-6.63,2.33-2.35,4.95-3.74,8.39-2.74,3.51,1.02,5.34,3.43,5.99,6.93.18.97.51,1.9.88,3.25,3.02-6.1,5.71-11.91,8.72-17.55,11.1-20.85,25.62-38.93,44.04-53.79,1.06-.85,2.24-1.55,3.37-2.31-.46,1.88-.65,3.89-1.43,5.63-3.44,7.66-7.11,15.22-10.54,22.88-.47,1.05-.03,2.51-.02,3.78-7.5,11.16-15.61,21.97-22.36,33.57-9.23,15.85-14.3,33.41-18.47,51.19-.83.57-2.05.96-2.44,1.75-3.66,7.44-7.11,14.98-10.77,22.42-2.08,4.23-4.45,8.31-6.69,12.46Z"/>
  <path class="cls-8" d="M384,248.25c-.75,4.46-1.53,8.92-2.24,13.38-6.83,42.82-27.4,76.62-65.43,98.67-7.32,4.25-15.37,7.24-23.08,10.82.79-2.79,1.45-5.63,2.4-8.36,1.35-3.9,2.9-7.73,4.36-11.59,15.66-7.84,29.37-18.11,40.77-32.38-4.73-2.33-9-4.34-13.18-6.54-2.25-1.18-3.76-.93-5.43,1.13-2.11,2.59-4.66,4.82-7.02,7.2.46-2.39.5-4.96,1.46-7.13,2.77-6.25,5.9-12.33,8.89-18.48,1.57.41,3.13.82,5.09,1.34-1.17-2.36-2.08-4.18-2.99-6.01.33-.76.6-1.56,1.01-2.27,2.48-4.35,4.99-8.69,7.5-13.03,6.93,8.53,11.07,18.49,14.46,29.28,12.49-21.78,16.77-44.98,17.53-69.03.41-12.93-1.79-25.54-5.24-37.96,1.83-3.27,3.56-6.59,5.51-9.78,1.59-2.59,3.44-5.02,5.18-7.52,2.52,8.71,5.14,17.39,7.51,26.14,1.21,4.48,1.98,9.07,2.95,13.61v28.5Z"/>
  <path class="cls-12" d="M134.25,33.75c8.8-.64,17.6-1.29,25.99-1.9,0-3.8-.36-7.68.07-11.47,1.08-9.65,6.62-15.84,15.68-19.04.88-.31,1.67-.88,2.51-1.33,2,0,4,0,6,0-1.93,4.1-4.02,8.14-5.69,12.34-.58,1.45-.12,3.31-.14,4.99-.83,2.49-2.24,4.95-2.37,7.48-.3,5.97,3.19,10.75,5.91,15.72-.99,1.37-2.07,2.68-2.94,4.13-2,3.33-3.9,6.73-5.83,10.1-3.05-4.67-6.53-8.47-12.93-6.41-10.75.61-21.5,1.21-32.25,1.82.45-1.87.72-3.82,1.41-5.6,1.41-3.65,3.05-7.21,4.59-10.81Z"/>
  <path class="cls-14" d="M178.67,17.33c.02-1.67-.44-3.54.14-4.99C180.48,8.14,182.57,4.1,184.5,0c.5,0,1,0,1.5,0h3c9.85,3.41,19.81,6.73,28.02,13.4,8.17,6.63,15.95,13.74,23.9,20.64-2.53,4.9-5.06,9.8-7.58,14.7-4.75-4.51-9.5-9.02-14.26-13.52-7.57-6.54-15.46-12.59-24.78-16.5-5.05-2.12-10.14-4.16-15.63-1.39Z"/>
  <path class="cls-6" d="M194.25,384c-1.74-.42-3.49-.83-5.23-1.25.56-1.47,1.1-2.95,1.67-4.41,1.43-3.61,2.87-7.22,4.31-10.82,5.75.12,11.49.24,17.24.36l21.76-.31c-.51,1.74-.9,3.52-1.54,5.21-1.42,3.77-2.97,7.49-4.46,11.22h-33.75Z"/>
  <path class="cls-23" d="M228,384c1.5-3.74,3.04-7.46,4.46-11.22.64-1.69,1.03-3.47,1.54-5.21,9.25-1.24,18.5-2.48,27.75-3.72-.24.69-.45,1.4-.72,2.08-2,5-4.02,10-6.03,15-5.89.76-11.78,1.5-17.66,2.29-.88.12-1.73.52-2.59.79h-6.75Z"/>
  <path class="cls-12" d="M93.03,129.11c-.02-1.27-.45-2.73.02-3.78,3.42-7.67,7.09-15.22,10.54-22.88.78-1.74.97-3.75,1.43-5.63,7.35-4.99,14.69-9.97,22.03-14.95-3.34-1.39-7.09-2.95-10.83-4.51,2.01-4.79,4.03-9.57,6.04-14.36,9.75,2.7,19.5,5.39,29.25,8.09,1.7.33,3.48.43,5.08,1.04,1.67.64,3.55,1.42,4.66,2.72,3.7,4.35,1.42,10.44-4.53,12.79-5.75,2.28-11.47,4.63-17.2,6.95-2.45,1.18-4.97,2.24-7.34,3.57-9.53,5.3-18.77,11.02-26.62,18.71-4.17,4.09-8.34,8.17-12.51,12.25Z"/>
  <path class="cls-15" d="M122.25,62.99c-2.01,4.79-4.03,9.57-6.04,14.36-4.77-2.83-10.11-5.02-14.19-8.63-9.6-8.5-7.95-22.22,3.53-27.92,6.12-3.04,13.12-4.38,19.81-6.15,2.84-.75,5.91-.63,8.88-.9-1.54,3.6-3.18,7.16-4.59,10.81-.69,1.78-.95,3.73-1.41,5.6-4.43,1.05-8.93,1.86-13.26,3.23-3.28,1.04-3.49,2.94-.67,4.95,2.49,1.77,5.27,3.13,7.92,4.67Z"/>
  <path class="cls-23" d="M373.55,180c-1.74,2.5-3.59,4.93-5.18,7.52-1.95,3.19-3.69,6.51-5.51,9.78-7.68,2.33-15.35,4.67-22.79,6.93-.07.75-.12.88-.08.99.23.71.45,1.43.72,2.13,5.08,12.83,4.04,25.33-1.71,37.7-2.29,4.94-5.45,7.99-11.27,7.06-5.29-1.12-10.59-2.23-15.88-3.35l-.16.82c3.37,3.05,6.74,6.1,10.12,9.14-1.04,1.06-2.31,1.97-3.08,3.2-2.05,3.23-3.88,6.6-5.8,9.92-6.06-4.87-12.11-9.74-18.17-14.61.62-1.73,1.13-3.51,1.87-5.19,2.84-6.47,5.75-12.9,8.63-19.35,6.87.66,13.74,1.32,20.75,1.99,2.36-6.52,2.6-12.99.37-19.62-1.17-3.46-2.51-6.06-6.8-4.28.13-1.32-.08-2.79.44-3.93,5.28-11.53,10.72-22.99,15.98-34.53.45-.99-.06-2.42-.12-3.65,3.57-2.1,7.14-4.21,10.81-6.37-1.49-2.55-2.79-4.79-4.09-7.02.93-1.03,2.06-1.94,2.77-3.11,2.25-3.75,4.34-7.6,6.5-11.41,8.83,12.19,16.73,24.89,21.69,39.22Z"/>
  <path class="cls-13" d="M292.49,87.78c13.27,7.26,25.34,16.13,36.1,26.76-2.3,5.13-4.6,10.26-6.91,15.39-5.66-4.85-11.33-9.69-16.99-14.54-6.61-4.69-13.23-9.39-19.84-14.08.31-.63.58-1.28.93-1.88,2.23-3.89,4.47-7.76,6.7-11.65Z"/>
  <path class="cls-25" d="M292.49,87.78c-2.24,3.88-4.48,7.76-6.7,11.65-.35.61-.62,1.25-.93,1.88-1.11-.53-2.22-1.07-3.34-1.58-8.1-3.72-16.2-7.44-24.3-11.16l.05-.29c-.27-.17-.55-.34-.82-.51-1.08-2.48-2.17-4.96-3.25-7.44,1.86-2.95,3.73-5.9,5.59-8.85,1.46-2.32,2.9-4.65,4.35-6.98,1.25,2.56,2.85,5.01,3.66,7.7.94,3.14,3.07,4.38,5.76,5.64,6.72,3.14,13.3,6.6,19.93,9.93Z"/>
  <path class="cls-10" d="M263.14,64.5c-1.45,2.33-2.89,4.65-4.35,6.98-1.86,2.95-3.73,5.9-5.59,8.85-4.68-11.75-11.84-21.94-19.85-31.6,2.53-4.9,5.06-9.8,7.58-14.7,8.86,9.09,16.64,18.97,22.22,30.47Z"/>
  <path class="cls-6" d="M321.69,129.92c2.3-5.13,4.6-10.26,6.91-15.39,7.76,8.75,15.51,17.49,23.27,26.24-2.15,3.81-4.25,7.65-6.5,11.41-.7,1.17-1.83,2.08-2.77,3.11-6.97-8.46-13.94-16.91-20.91-25.37Z"/>
  <path class="cls-12" d="M32.3,250.5c2.24-4.15,4.6-8.24,6.69-12.46,3.66-7.44,7.11-14.98,10.77-22.42.39-.79,1.61-1.18,2.44-1.75-1.2,9.21-2.54,18.4-3.56,27.63-1.19,10.77-1.07,21.54,1,32.23,1.97,7,3.93,14.01,5.9,21.01-.85.94-1.94,1.75-2.52,2.84-2.3,4.33-4.43,8.75-6.63,13.13-6.66-10.46-10.69-22-12.46-34.13-1.26-8.59-1.13-17.38-1.62-26.08Z"/>
  <path class="cls-14" d="M46.39,310.72c2.2-4.38,4.33-8.8,6.63-13.13.58-1.09,1.66-1.9,2.52-2.84,1.95,3.56,3.79,7.19,5.86,10.68,5.4,9.07,12.93,16.32,20.43,23.58-.92,2.13-1.91,4.24-2.76,6.39-1.16,2.92-2.21,5.89-3.31,8.84-12.08-9.17-22.13-20.11-29.37-33.52Z"/>
  <path class="cls-13" d="M195,367.52c-1.44,3.61-2.88,7.21-4.31,10.82-.58,1.46-1.12,2.94-1.67,4.41-13.76-2.07-27.52-4.14-41.27-6.2-.87-3.71-.66-7.3,1.53-10.52,1.1-1.61,2.47-3.03,3.72-4.54,6.25,1.01,12.5,2.02,18.75,3.02,1.21.25,2.41.58,3.63.73,6.54.79,13.08,1.53,19.62,2.28Z"/>
  <path class="cls-10" d="M75.76,344.23c1.1-2.95,2.15-5.91,3.31-8.84.85-2.16,1.84-4.26,2.76-6.39,3.72,2.58,7.45,5.17,11.17,7.75.99.73,1.9,1.6,2.98,2.17,7.52,3.96,15.07,7.85,22.61,11.77-2.04,4.88-4.07,9.76-6.11,14.64-12.17-4.61-23.44-10.84-33.72-18.85.22-2.37-1.4-2.29-2.99-2.24,0,0,0,0,0,0Z"/>
  <path class="cls-25" d="M112.48,365.33c2.04-4.88,4.07-9.76,6.11-14.64,4.94,1.67,9.87,3.34,14.81,5.01,6.54,1.93,13.07,3.86,19.61,5.78-1.25,1.51-2.63,2.93-3.72,4.54-2.19,3.22-2.4,6.81-1.53,10.52-11.76-3.74-23.52-7.48-35.27-11.22Z"/>
  <path class="cls-14" d="M75.77,344.24c1.59-.05,3.21-.13,2.99,2.24l-2.99-2.24Z"/>
  <path class="cls-11" d="M255,380.91c2.01-5,4.03-10,6.03-15,.27-.68.48-1.38.72-2.08,1-.31,2-.62,3-.92.98-.14,2.01-.12,2.92-.44,10.79-3.74,21.56-7.53,32.34-11.31-1.46,3.86-3.02,7.69-4.36,11.59-.94,2.74-1.61,5.57-2.4,8.36-12.34,4.88-25.11,8.06-38.25,9.8Z"/>
  <path class="cls-26" d="M49.63,273.73c-2.07-10.69-2.19-21.46-1-32.23,1.02-9.23,2.36-18.42,3.56-27.63,4.17-17.78,9.25-35.35,18.48-51.19,6.75-11.6,14.86-22.41,22.36-33.57,4.17-4.08,8.34-8.17,12.51-12.25,7.85-7.69,17.1-13.41,26.62-18.71,2.37-1.32,4.89-2.38,7.34-3.57-.19,1.34-.09,2.8-.62,4-2.81,6.38-5.73,12.71-8.69,19.02-6.18,13.2-12.45,26.35-18.62,39.56-11.8,25.27-23.57,50.56-35.32,75.86-5.87,12.65-11.6,25.36-17.6,37.95-1.04,2.18-3.08,3.87-4.66,5.79-1.45-1.01-2.91-2.01-4.36-3.02Z"/>
  <path class="cls-21" d="M327.73,252.11c5.82.93,8.97-2.13,11.27-7.06,5.75-12.37,6.79-24.88,1.71-37.7-.28-.7-.49-1.41-.72-2.13-.03-.11.02-.24.08-.99,7.44-2.26,15.12-4.59,22.79-6.93,3.45,12.42,5.65,25.03,5.24,37.96-.76,24.05-5.05,47.25-17.53,69.03-3.39-10.79-7.53-20.75-14.46-29.28-4.06-4.91-8.11-9.82-12.17-14.73,1.26-2.72,2.52-5.44,3.79-8.17Z"/>
  <path class="cls-11" d="M325.5,294.98c-2.99,6.15-6.12,12.23-8.89,18.48-.96,2.17-1,4.74-1.46,7.12-12.12,9.51-24.13,19.17-36.41,28.46-6.1,4.62-11.86,3.39-17.19-2.82.5-1.51.92-3.04,1.5-4.51,1.3-3.27,2.68-6.5,4.02-9.75,2.14.29,3.55,3.62,6.26,1.56,8.39-6.41,16.77-12.85,25.16-19.27,2.64-2.3,5.28-4.59,8.68-7.56-8.64-1.09-16.16-2.03-23.67-2.98.45-1.39.82-2.81,1.38-4.16,1.5-3.65,3.09-7.26,4.64-10.89,1.98.14,3.98.11,5.92.45,9.52,1.63,19.02,3.35,28.53,5.04.51.28,1.02.55,1.53.83Z"/>
  <path class="cls-5" d="M261.55,346.23c5.33,6.21,11.09,7.44,17.19,2.82,12.28-9.3,24.29-18.95,36.41-28.46,2.36-2.38,4.92-4.61,7.02-7.2,1.68-2.06,3.18-2.31,5.43-1.13,4.18,2.19,8.45,4.2,13.18,6.54-11.41,14.27-25.12,24.54-40.77,32.38-10.78,3.78-21.55,7.57-32.34,11.31-.91.32-1.95.3-2.92.44-.75-1.35-1.25-2.94-2.29-4-8.64-8.78-17.4-17.44-26.06-26.2-.99-1-1.58-2.39-2.35-3.6,5.47,3.7,10.86,7.53,16.43,11.06,3.55,2.25,7.37,4.05,11.08,6.05Z"/>
  <path class="cls-2" d="M325.5,294.98c-.51-.28-1.02-.55-1.53-.83-.58-1.21-.97-2.58-1.78-3.61-10.95-13.77-24.66-24.19-40.11-32.36-1.27-.67-3.71-.25-5.06.56-9.4,5.61-18.83,11.21-27.88,17.34-4.44,3.01-8.12,7.15-12.15,10.78-2.77.13-5.53.27-8.96.44,6.85-8.94,15.26-14.92,23.34-21.24,8.8-5.3,17.55-10.68,26.45-15.81,1.19-.68,3.37-.65,4.63-.02,4.21,2.11,8.21,4.64,12.3,7.01,6.06,4.87,12.11,9.74,18.17,14.61,4.9,6.15,9.79,12.31,14.69,18.46.91,1.82,1.81,3.65,2.99,6.01-1.96-.51-3.53-.92-5.09-1.34Z"/>
  <path class="cls-11" d="M327.61,290.31c-4.89-6.16-9.79-12.31-14.69-18.46,1.92-3.31,3.75-6.68,5.8-9.91.78-1.23,2.04-2.14,3.08-3.2.71.52,1.43,1.03,2.14,1.55,4.06,4.91,8.11,9.82,12.17,14.73-2.5,4.34-5.01,8.67-7.49,13.02-.41.72-.68,1.51-1.01,2.27Z"/>
  <path class="cls-28" d="M54,276.75c1.58-1.92,3.63-3.61,4.66-5.79,6-12.59,11.72-25.3,17.6-37.95,11.75-25.3,23.52-50.59,35.32-75.86,6.17-13.2,12.44-26.36,18.62-39.56,2.96-6.31,5.88-12.64,8.69-19.02.52-1.19.43-2.66.62-4,5.73-2.32,11.46-4.67,17.2-6.95,5.95-2.36,8.23-8.45,4.53-12.79-1.11-1.3-2.99-2.08-4.66-2.72-1.59-.61-3.38-.71-5.08-1.04.48-1.65.81-3.35,1.46-4.93,2.46-5.96,5.02-11.89,7.55-17.82,6.39-2.06,9.87,1.74,12.92,6.41.77.97,1.43,2.05,2.32,2.88,7.31,6.71,14.66,13.38,22,20.06-.84,1.2-1.88,2.31-2.5,3.61-4.54,9.7-8.98,19.44-13.49,29.15-6.77,14.57-13.55,29.14-20.35,43.69-13.09,27.98-26.2,55.95-39.3,83.92-3.91,8.35-7.8,16.7-11.73,25.04-6.03,12.81-12.09,25.6-18.13,38.4-5.12-2.55-10.56-4.61-15.27-7.77-7.91-5.29-15.35-11.28-22.98-16.98Z"/>
  <path class="cls-24" d="M178.67,17.33c5.5-2.78,10.58-.74,15.63,1.39,9.31,3.91,17.21,9.96,24.78,16.5-.57.62-1.35,1.14-1.69,1.87-3.04,6.37-6.01,12.77-8.97,19.17-1.02,2.21-1.94,4.47-2.91,6.7-9.15-6.04-16.48-13.98-23.3-22.44-2.71-4.97-6.21-9.75-5.91-15.72.13-2.53,1.54-4.99,2.37-7.48Z"/>
  <path class="cls-14" d="M182.2,40.52c6.82,8.46,14.15,16.4,23.3,22.44,4.2,2.87,8.41,5.74,12.61,8.61,1.03.7,2.13,1.32,3.05,2.14,3.25,2.93,3.75,6.88,1.43,10.43-2.13,3.26-6.59,4.56-10.22,2.52-4.98-2.8-9.76-5.97-14.62-8.98-7.34-6.68-14.69-13.34-22-20.06-.9-.83-1.56-1.91-2.32-2.88,1.94-3.37,3.83-6.77,5.83-10.1.87-1.44,1.95-2.76,2.94-4.13Z"/>
  <path class="cls-26" d="M160.51,48.34c-2.53,5.94-5.09,11.86-7.55,17.82-.65,1.57-.98,3.28-1.46,4.93-9.75-2.7-19.5-5.4-29.25-8.09-2.65-1.54-5.44-2.89-7.92-4.67-2.82-2.01-2.61-3.91.67-4.95,4.33-1.37,8.83-2.18,13.26-3.23,10.75-.61,21.5-1.21,32.25-1.82Z"/>
  <path class="cls-16" d="M197.76,77.68c4.86,3.01,9.64,6.17,14.62,8.98,3.63,2.04,8.08.74,10.22-2.52,2.33-3.55,1.82-7.5-1.43-10.43-.91-.83-2.02-1.44-3.05-2.14-4.2-2.87-8.41-5.74-12.61-8.61.97-2.24,1.89-4.49,2.91-6.7,2.96-6.41,5.94-12.8,8.97-19.17.35-.73,1.12-1.25,1.69-1.87,4.75,4.51,9.5,9.02,14.26,13.52,8.02,9.65,15.18,19.85,19.86,31.6,1.08,2.48,2.17,4.96,3.25,7.44.28.17.55.34.82.51,0,0-.05.29-.05.29-.12.48-.15,1-.36,1.44-4.74,10.27-9.52,20.53-14.26,30.8-4.28,9.25-8.45,18.56-12.81,27.77-2.76,5.82-5.79,11.5-8.69,17.25-2.95-1.53-5.88-3.11-8.87-4.58-4.97-2.43-8.99-1.17-11.57,3.67-1.87,3.51-3.58,7.1-5.36,10.65-5.36,10.71-4.82,12.37,5.77,17.7-.27,1.08-.38,2.23-.84,3.22-12.86,27.54-25.77,55.05-38.63,82.59-4.11,8.8-7.91,17.74-12.23,26.44-1.81,3.65-2.37,8.33-6.87,10.25-5.09-.91-10.23-1.6-15.25-2.78-6.96-1.63-13.84-3.63-20.75-5.47-4.75-2-9.5-4-14.25-6.01,6.04-12.8,12.1-25.6,18.13-38.4,3.93-8.34,7.82-16.69,11.73-25.04,13.1-27.97,26.21-55.94,39.3-83.92,6.81-14.55,13.59-29.12,20.35-43.69,4.51-9.71,8.95-19.46,13.49-29.15.61-1.31,1.65-2.41,2.5-3.61Z"/>
  <path class="cls-7" d="M195,367.52c-6.54-.76-13.09-1.49-19.62-2.28-1.22-.15-2.42-.48-3.63-.73,4.53-9.83,9.14-19.61,13.56-29.49,2.16-4.84,3.97-9.84,5.94-14.77,6.06-.25,12.14-.31,18.18-.84,3.72-.33,7.37-1.39,11.05-2.12,2.99,2.52,5.99,5.04,8.98,7.56l1.61,1.95c-.47.56-1.09,1.06-1.4,1.7-5.2,10.99-10.41,21.99-15.5,33.03-.91,1.99-1.3,4.22-1.93,6.33-5.75-.12-11.49-.24-17.24-.36Z"/>
  <path class="cls-20" d="M212.24,367.88c.63-2.12,1.02-4.35,1.93-6.33,5.09-11.05,10.29-22.04,15.5-33.03.3-.64.92-1.14,1.4-1.7.99.77,1.99,1.53,2.98,2.3.77,1.21,1.36,2.6,2.35,3.6,8.66,8.76,17.42,17.42,26.06,26.2,1.04,1.06,1.54,2.66,2.29,4-1,.31-2,.62-3,.92-9.25,1.24-18.5,2.48-27.75,3.72-7.25.11-14.51.21-21.76.31Z"/>
  <path class="cls-3" d="M321.69,129.92c6.97,8.46,13.94,16.91,20.91,25.37,1.3,2.23,2.6,4.46,4.09,7.02-3.67,2.16-7.24,4.27-10.81,6.37-5.25,2.78-10.54,5.51-15.76,8.36-13.22,7.22-26.42,14.5-39.62,21.76-4.02-2.21-8.03-4.42-12.05-6.63,3.18-6.88,6.35-13.77,9.54-20.64,6.76-14.54,13.5-29.08,20.33-43.59,2-4.24,4.24-8.37,6.37-12.55,5.66,4.85,11.33,9.69,16.99,14.54Z"/>
  <path class="cls-27" d="M319.58,210.79c4.29-1.78,5.64.81,6.8,4.28,2.23,6.63,1.99,13.1-.37,19.62-7.02-.67-13.88-1.33-20.75-1.99-2.96,0-5.92,0-8.86,0-.44-1.59-.6-2.72-1.06-3.73-1.28-2.8-3.39-4.57-6.58-4.82-3.3-.26-6.46.8-7.42,3.84-1.08,3.39-3.41,4.28-6.11,5.53-4.84,2.26-9.5,4.91-14.23,7.4-3.53-.25-7.06-.49-10.6-.74.85-.65,1.71-1.28,2.54-1.94,2.68-2.15,3.71-5.88,2.52-9.07-1.24-3.34-4.52-5.33-8.26-5.03-3.4.28-6.28,2.81-7.04,6.2-.86,3.81,1.1,7.06,5.81,9.63-3.74.3-7.48.6-11.22.9-.8.08-1.59.15-2.39.23-.95.14-1.91.29-2.86.43-3.73.52-7.45,1.03-11.09,1.54-5.54-11.96-1.15-27.3,9.95-35.88,1.96-1.51,3.66-2.05,6.06-.89,3,1.44,6.21,2.44,9.33,3.62,9.25,3.72,18.5,7.43,27.75,11.15,4.33,2.24,8.53,3.69,13.65,1.76,11.37-4.28,22.94-8.06,34.42-12.04Z"/>
  <path class="cls-6" d="M319.58,210.79c-11.49,3.98-23.05,7.76-34.42,12.04-5.12,1.93-9.32.47-13.65-1.76,1.15-2.99,2.25-5.99,3.46-8.95,1.81-4.45,3.69-8.88,5.54-13.31,13.21-7.26,26.4-14.54,39.62-21.76,5.22-2.85,10.5-5.57,15.76-8.36.06,1.23.57,2.65.12,3.64-5.26,11.54-10.7,23-15.98,34.53-.52,1.14-.31,2.61-.44,3.93Z"/>
  <path class="cls-6" d="M261,240.92c4.73-2.49,9.39-5.14,14.23-7.4,2.69-1.26,5.03-2.14,6.11-5.53.96-3.04,4.12-4.11,7.42-3.84,3.19.26,5.3,2.02,6.58,4.82.46,1,.62,2.14,1.06,3.73h8.86c-2.88,6.45-5.79,12.88-8.63,19.35-.74,1.68-1.25,3.46-1.87,5.19-4.08-2.37-8.08-4.9-12.3-7.01-1.26-.63-3.44-.67-4.63.02-8.9,5.13-17.65,10.51-26.45,15.81.44-2.14.55-4.42,1.37-6.41,2.61-6.3,5.48-12.49,8.25-18.72Z"/>
  <path class="cls-3" d="M323.95,260.28c-.72-.52-1.43-1.03-2.14-1.55-3.37-3.05-6.74-6.1-10.12-9.14l.16-.82c5.29,1.12,10.59,2.23,15.88,3.35-1.26,2.72-2.52,5.44-3.79,8.17Z"/>
  <path class="cls-4" d="M304.7,115.39c-2.13,4.18-4.38,8.3-6.37,12.55-6.82,14.51-13.57,29.06-20.33,43.59-3.2,6.87-6.36,13.76-9.54,20.64-4.47-2.32-8.93-4.63-13.4-6.95-.61-.42-1.18-.89-1.82-1.26-10.71-6.06-21.42-12.1-32.14-18.15,2.91-5.74,5.94-11.43,8.69-17.25,4.37-9.21,8.54-18.51,12.81-27.77,4.75-10.27,9.52-20.53,14.26-30.8.2-.44.24-.96.36-1.44,8.1,3.72,16.2,7.44,24.3,11.16,1.12.52,2.23,1.05,3.34,1.58,6.61,4.69,13.23,9.39,19.84,14.08Z"/>
  <path class="cls-10" d="M257.27,88.27c-.27-.17-.55-.34-.82-.51.27.17.55.34.82.51Z"/>
  <path class="cls-9" d="M92.25,301.5c4.75,2,9.5,4,14.25,6.01-4.5,9.75-9,19.5-13.5,29.25-3.73-2.58-7.45-5.16-11.17-7.75-7.5-7.27-15.03-14.52-20.43-23.58-2.08-3.49-3.92-7.12-5.86-10.68-1.97-7-3.94-14.01-5.9-21.01,1.46,1.01,2.91,2.01,4.36,3.02,7.64,5.7,15.08,11.68,22.98,16.98,4.71,3.15,10.16,5.22,15.27,7.77Z"/>
  <path class="cls-18" d="M191.25,320.25c-1.97,4.93-3.77,9.93-5.94,14.77-4.42,9.88-9.03,19.67-13.56,29.49-6.25-1.01-12.5-2.02-18.75-3.02-6.54-1.93-13.07-3.86-19.61-5.79,6.04-12.81,12.07-25.63,18.11-38.44.96.24,1.9.63,2.87.69,12.29.8,24.59,1.54,36.88,2.31Z"/>
  <path class="cls-30" d="M151.5,317.26c-6.04,12.81-12.07,25.63-18.11,38.44-4.94-1.67-9.87-3.34-14.81-5.01-7.54-3.92-15.09-7.81-22.61-11.77-1.08-.57-1.99-1.44-2.98-2.17,4.5-9.75,9-19.5,13.5-29.25,6.91,1.84,13.79,3.84,20.75,5.47,5.02,1.18,10.16,1.87,15.25,2.78,3,.5,6,1,9,1.51Z"/>
  <path class="cls-19" d="M236.99,286.86c4.02-3.63,7.7-7.77,12.15-10.78,9.06-6.13,18.49-11.73,27.88-17.34,1.36-.81,3.8-1.23,5.06-.56,15.45,8.18,29.15,18.59,40.11,32.36.82,1.03,1.2,2.4,1.78,3.61-9.51-1.69-19.01-3.41-28.53-5.04-1.94-.33-3.95-.31-5.92-.45-14-.62-28-1.24-42.01-1.86-3.51.02-7.01.04-10.52.05Z"/>
  <path class="cls-19" d="M298.49,314.24c-8.38,6.43-16.76,12.86-25.16,19.27-2.71,2.07-4.11-1.26-6.26-1.55-.6-.43-1.19-.87-1.79-1.3-9.28-6.69-18.57-13.37-27.85-20.05,11.81.22,23.62.38,35.42.67,4.58.11,9.18.31,13.73.82,4,.45,7.94,1.41,11.91,2.15Z"/>
  <path class="cls-6" d="M247.51,286.81c14,.62,28,1.24,42.01,1.86-1.55,3.63-3.13,7.24-4.64,10.89-.56,1.35-.93,2.77-1.38,4.16-14-.34-27.99-.69-41.99-1.03.44-1.52.76-3.09,1.34-4.56,1.49-3.79,3.1-7.54,4.66-11.31Z"/>
  <path class="cls-6" d="M237.44,310.6c9.28,6.68,18.57,13.37,27.85,20.05.6.43,1.19.87,1.79,1.3-1.35,3.25-2.73,6.48-4.02,9.75-.58,1.47-1,3.01-1.5,4.51-3.7-2-7.53-3.81-11.08-6.05-5.58-3.53-10.96-7.36-16.43-11.06-.99-.77-1.99-1.53-2.98-2.3-.54-.65-1.07-1.3-1.61-1.95,2.32-4.81,4.63-9.63,6.95-14.44.34.06.69.12,1.03.19Z"/>
  <path class="cls-1" d="M237.44,310.6c-.34-.06-.69-.12-1.03-.19-2.43-2.11-4.85-4.22-7.27-6.33.29-.47.59-.93.88-1.4,3.84,0,7.67,0,11.51,0,14,.34,27.99.69,41.99,1.03,7.51.94,15.03,1.89,23.67,2.98-3.4,2.96-6.04,5.26-8.68,7.56-3.97-.74-7.91-1.69-11.91-2.15-4.55-.52-9.15-.71-13.73-.82-11.81-.29-23.61-.46-35.42-.67Z"/>
  <path class="cls-13" d="M241.51,302.68h-11.51c-.29.47-.59.93-.88,1.4,2.42,2.11,4.85,4.22,7.27,6.33-2.32,4.81-4.63,9.63-6.95,14.44-2.99-2.52-5.99-5.04-8.98-7.56-3.06-3.77-6.37-7.36-9.12-11.34-3.6-5.22-4.84-11.2-1.97-17.03,2.73-5.53,6.37-10.61,9.62-15.89.25-.26.49-.52.74-.78h.01c.28-.49.57-.97.85-1.45l-.05.03c.26-.26.52-.52.77-.78l-.02.03.77-.78-.02.03c.26-.26.51-.52.77-.78l-.02.03c.26-.26.51-.52.77-.78l-.02.03c.26-.26.51-.52.77-.77l-.02.03c.26-.26.51-.51.77-.77v.02c.24-.26.5-.51.75-.77l-.03.04c.53-.27,1.06-.54,1.59-.81.22-.19.44-.39.66-.58,1.02-1.03,2.04-2.05,3.06-3.08l-.06-.04c.49-.26.99-.53,1.48-.79h0c1.44-.99,2.88-1.97,4.32-2.96-.12-.26-.24-.51-.36-.77-.84.22-1.67.44-2.51.66-3.25.27-6.5.54-9.75.81,1.18-3.37,2.43-6.73,3.53-10.12.68-2.09,1.15-4.25,1.72-6.38.95-.14,1.91-.29,2.86-.43.95,1.52,1.76,1.62,2.39-.23,3.74-.3,7.48-.6,11.22-.9,1.48.07,2.96.14,4.43.22,3.53.25,7.06.49,10.6.74-2.77,6.23-5.64,12.42-8.25,18.72-.82,1.98-.94,4.26-1.37,6.41-8.09,6.33-16.49,12.3-23.34,21.24,3.42-.17,6.19-.3,8.96-.44,3.51-.02,7.01-.04,10.52-.05-1.56,3.77-3.17,7.52-4.66,11.31-.58,1.47-.9,3.04-1.34,4.56Z"/>
  <path class="cls-22" d="M224.25,258.03c3.25-.27,6.5-.54,9.75-.81-.48,1.03-.97,2.06-1.45,3.08h0c-.49.26-.99.53-1.48.79,0,0,.06.04.06.04-1.02,1.03-2.04,2.05-3.06,3.08-.22.19-.44.39-.66.58-.53.27-1.06.54-1.59.81,0,0,.03-.04.03-.04-.26.26-.51.51-.77.77,0,0,.01-.02.01-.02-.26.26-.51.51-.77.77,0,0,.02-.03.02-.03-.26.26-.51.52-.77.77,0,0,.02-.03.02-.03-.26.26-.51.52-.77.78,0,0,.02-.03.02-.03-.26.26-.51.52-.77.78,0,0,.02-.03.02-.03-.26.26-.51.52-.77.78,0,0,.02-.03.02-.03-.26.26-.52.52-.77.78,0,0,.05-.03.05-.03-.28.48-.57.96-.85,1.44,0,0-.01.01-.01.01-.25.26-.49.52-.74.78-3.24,5.28-6.89,10.36-9.62,15.89-2.87,5.82-1.63,11.81,1.97,17.03,2.75,3.98,6.06,7.57,9.12,11.34-3.68.73-7.33,1.79-11.05,2.12-6.04.53-12.12.58-18.18.84-12.29-.76-24.59-1.51-36.88-2.31-.97-.06-1.91-.45-2.87-.69-3-.5-6-1-9-1.51,4.5-1.91,5.06-6.6,6.87-10.25,4.32-8.69,8.12-17.64,12.23-26.44,12.86-27.54,25.77-55.05,38.63-82.59.46-.99.57-2.14.84-3.21,3.96,1.58,7.91,3.15,12.04,4.8-2.01,2.97-3.75,5.36-5.29,7.87-10.02,16.38-10.48,33.04-1.25,49.91,1.63,2.98,4.11,4.86,7.58,4.38,3.4-.47,6.74-1.45,10.1-2.2Z"/>
  <path class="cls-25" d="M224.25,258.03c-3.37.75-6.7,1.73-10.1,2.2-3.47.48-5.95-1.4-7.58-4.38-9.22-16.87-8.77-33.53,1.25-49.91,1.54-2.51,3.28-4.9,5.29-7.87-4.13-1.64-8.08-3.22-12.04-4.8-10.59-5.33-11.13-7-5.77-17.7,1.78-3.55,3.49-7.15,5.36-10.65,2.58-4.84,6.6-6.1,11.57-3.67,2.99,1.46,5.92,3.05,8.87,4.58,10.71,6.05,21.43,12.09,32.14,18.15.64.36,1.21.83,1.82,1.26-2.23,4.5-4.57,8.95-6.67,13.51-1.69,3.66-3.1,7.45-4.63,11.18-3.12-1.19-6.33-2.18-9.33-3.62-2.4-1.15-4.1-.62-6.06.89-11.11,8.57-15.5,23.91-9.95,35.88,3.64-.5,7.36-1.02,11.09-1.54-.57,2.13-1.04,4.29-1.72,6.38-1.11,3.4-2.35,6.75-3.53,10.12Z"/>
  <path class="cls-13" d="M243.75,209.91c1.53-3.73,2.94-7.52,4.63-11.18,2.1-4.56,4.44-9.01,6.67-13.51,4.47,2.32,8.93,4.63,13.4,6.95,4.02,2.21,8.03,4.42,12.05,6.63-1.85,4.44-3.73,8.86-5.54,13.31-1.2,2.96-2.31,5.97-3.46,8.95-9.25-3.72-18.5-7.43-27.75-11.15Z"/>
  <path class="cls-25" d="M250.41,240.18c-1.48-.07-2.96-.14-4.43-.22-4.71-2.57-6.67-5.82-5.81-9.63.76-3.39,3.64-5.92,7.04-6.2,3.74-.31,7.02,1.69,8.26,5.03,1.19,3.2.16,6.92-2.52,9.07-.83.67-1.69,1.3-2.54,1.94Z"/>
  <path class="cls-25" d="M234.75,240.86c-.63,1.85-1.44,1.75-2.39.23.8-.08,1.59-.15,2.39-.23Z"/>
  <path class="cls-26" d="M232.55,260.3c.48-1.03.97-2.06,1.45-3.08.84-.22,1.67-.44,2.51-.66.12.26.24.51.36.77-1.44.99-2.88,1.98-4.32,2.97Z"/>
  <path class="cls-26" d="M228.06,264.21c1.02-1.03,2.04-2.05,3.06-3.08-1.02,1.03-2.04,2.05-3.06,3.08Z"/>
  <path class="cls-26" d="M219.75,272.24c.28-.48.57-.96.85-1.44-.28.48-.57.96-.85,1.44Z"/>
  <path class="cls-26" d="M225.81,265.6c.53-.27,1.06-.54,1.59-.81-.53.27-1.06.54-1.59.81Z"/>
  <path class="cls-26" d="M231.05,261.09c.49-.26.99-.53,1.48-.79-.49.26-.99.53-1.48.79Z"/>
  <path class="cls-26" d="M222.81,268.58c.26-.26.51-.52.77-.78-.26.26-.51.52-.77.78Z"/>
  <path class="cls-26" d="M222.06,269.33c.26-.26.51-.52.77-.78-.26.26-.51.52-.77.78Z"/>
  <path class="cls-26" d="M221.31,270.08c.26-.26.51-.52.77-.78-.26.26-.51.52-.77.78Z"/>
  <path class="cls-26" d="M220.56,270.84c.26-.26.52-.52.77-.78-.26.26-.52.52-.77.78Z"/>
  <path class="cls-26" d="M219.01,273.04c.25-.26.49-.52.74-.78-.25.26-.49.52-.74.78Z"/>
  <path class="cls-26" d="M224.31,267.08c.26-.26.51-.51.77-.77-.26.26-.51.51-.77.77Z"/>
  <path class="cls-26" d="M225.06,266.33c.26-.26.51-.51.77-.77-.26.26-.51.51-.77.77Z"/>
  <path class="cls-26" d="M223.55,267.83c.26-.26.51-.52.77-.77-.26.26-.51.52-.77.77Z"/>
</svg>